<?xml version="1.0" standalone="no"?>
<!DOCTYPE svg PUBLIC "-//W3C//DTD SVG 20010904//EN"
 "http://www.w3.org/TR/2001/REC-SVG-20010904/DTD/svg10.dtd">
<svg version="1.0" xmlns="http://www.w3.org/2000/svg"
 width="225.000000pt" height="225.000000pt" viewBox="0 0 225.000000 225.000000"
 preserveAspectRatio="xMidYMid meet">
<metadata>
Created by potrace 1.16, written by Peter Selinger 2001-2019
</metadata>
<g transform="translate(0.000000,225.000000) scale(0.100000,-0.100000)"
fill="#000000" stroke="none">
<path d="M1630 2166 c-25 -7 -63 -24 -85 -38 -59 -37 -139 -129 -155 -177 -7
-23 -18 -40 -24 -38 -51 20 -150 31 -261 31 -135 -1 -224 -15 -348 -56 l-67
-22 -17 24 c-58 83 -121 124 -208 135 -47 7 -54 5 -95 -27 -29 -22 -57 -56
-79 -98 -41 -77 -51 -168 -31 -294 l12 -81 -31 -47 c-110 -162 -166 -397 -142
-586 49 -379 325 -667 731 -763 89 -21 369 -18 455 5 173 46 355 148 475 266
187 183 283 400 284 642 1 112 2 117 23 123 58 14 123 106 123 173 -1 97 -103
157 -199 119 l-40 -16 -26 44 c-14 25 -53 78 -86 119 l-60 75 27 73 c19 53 28
99 32 170 4 91 3 101 -22 152 -41 83 -104 114 -186 92z m61 -139 c19 -15 49
-89 49 -123 0 -14 -5 -45 -11 -69 -10 -38 -13 -42 -25 -30 -22 21 -158 94
-185 99 -13 2 -33 -4 -43 -13 -19 -16 -19 -15 -1 14 65 106 164 162 216 122z
m-1148 -204 c21 -12 127 -136 122 -142 -3 -2 -11 4 -19 14 -13 18 -15 18 -40
1 -53 -34 -108 -97 -103 -117 3 -10 1 -19 -4 -19 -5 0 -9 9 -9 20 0 18 -5 15
-31 -15 -17 -19 -36 -35 -43 -35 -16 0 -34 104 -29 170 5 73 20 109 56 130 29
18 62 16 100 -7z m1566 -394 c18 -11 31 -23 27 -26 -3 -3 -1 -12 5 -20 9 -9 8
-13 0 -13 -6 0 -11 -4 -11 -10 0 -5 7 -10 15 -10 20 0 19 -29 -2 -53 -10 -11
-12 -17 -5 -13 11 6 10 2 -1 -20 -23 -43 -57 -76 -73 -70 -8 3 -14 1 -14 -4 0
-16 -38 -11 -79 10 -28 14 -43 31 -55 61 -16 40 -16 46 -1 85 35 92 119 129
194 83z m-656 -38 c14 -14 -1 -48 -30 -67 -36 -23 -123 -29 -148 -10 -20 14
-20 15 4 40 43 46 144 67 174 37z m-727 -303 c4 -6 -1 -17 -11 -26 -16 -16
-17 -15 -10 8 9 29 3 26 -15 -9 -6 -13 -7 -21 -2 -17 6 3 13 2 17 -4 3 -5 11
-10 16 -10 6 0 7 5 3 12 -4 7 -3 8 4 4 6 -4 8 -14 5 -24 -6 -15 -5 -15 10 -3
9 7 17 21 17 30 1 13 2 13 11 -3 9 -14 8 -20 -2 -27 -13 -8 -5 -13 16 -9 5 1
2 -7 -8 -18 -9 -10 -14 -21 -11 -24 3 -3 0 -9 -7 -14 -8 -5 -10 -3 -4 7 5 8 4
11 -1 6 -5 -5 -9 -12 -9 -15 -1 -4 -9 -22 -18 -39 -23 -44 -14 -42 13 2 12 19
27 34 33 32 7 -1 11 6 9 15 -1 9 2 19 8 23 16 10 11 -36 -9 -82 -23 -49 -56
-69 -126 -77 -41 -4 -56 -1 -82 17 -18 12 -38 32 -45 45 -11 20 -10 25 5 34
10 5 15 14 11 19 -3 6 -12 5 -22 -3 -11 -9 -9 -2 6 23 12 20 22 40 22 45 -1 5
-7 -2 -15 -16 -18 -32 -19 -9 -1 34 7 18 27 42 43 54 41 29 134 35 149 10z"/>
</g>
</svg>
